# xmcd
#
# Track frame offsets: 
#        150
#        11554
#        28519
#        45533
#
# Disc length: 920 seconds
#
# Revision: 0
# Processed by: cddbd v1.5.2PL0 Copyright (c) Steve Scherf et al.
# Submitted via: ExactAudioCopy v0.99pb4
#
DISCID=24039604
DTITLE=Count To Fire - Count To Fire EP
DYEAR=2007
DGENRE=Alt. Rock
TTITLE0=My Comfort Zone
TTITLE1=Caroline
TTITLE2=Casablanca
TTITLE3=Watch Myself Fall Down
EXTD=
EXTT0=
EXTT1=
EXTT2=
EXTT3=
PLAYORDER=
